<?xml version="1.0" encoding="UTF-8"?>
<svg id="Layer_1" data-name="Layer 1" xmlns="http://www.w3.org/2000/svg" viewBox="0 0 80.2 24.81">
  <defs>
    <style>
      .cls-1 {
        fill: #55556b;
        stroke-width: 0px;
      }
    </style>
  </defs>
  <path class="cls-1" d="M28.72,14.34c-3.61-.41-7.19-1.06-10.72-1.92-1.69-.43-6.28-.88-7.11-2.41,3.11-.82,6.44-.4,9.54-1.62,1.34-.53,3.19-1.28,3.48-2.91.44-2.42-1.79-1.75-3.36-1.58-3.36.38-6.83.32-10.22.43-2.6.08-8.61-1.01-10.05,1.93-1.44,2.94,2.95,6.06,4.78,7.79,2.97,2.82,5.89,5.68,8.88,8.48.82.77,2.35,2.57,3.7,2.28,1.86-.42,1.26-2.17.61-3.4-.41-.79-6.39-8.22-6.41-8.21.58-.17,3.74,1.27,4.27,1.44,2.19.67,4.41,1.21,6.66,1.64,5.88,1.2,12.02,2.53,18.07,2.28,2.83-.12,4.93-1.14,7.46-2.18,2.39-.98,4.46.49,6.96,1.11,5.21,1.23,10.63,1.16,15.81-.2,3.51-.9,11.5-4.06,8.44-9.17-.8-1.33-2.34-2.24-2.28-.43.04,1.23.93,1.43.38,2.84-.48.92-1.28,1.64-2.26,1.99-4.48,2.25-10.86,2.78-15.72,2.24-1.85-.23-5.52-.94-7-2.16-1.32-1.08-.39-2.54-.62-4.45-.61-4.95-6.14-9.55-11.35-7.69-7.53,2.72,1.16,10.91,4.69,12.92-3.66,3.27-12.44,1.51-16.63.99ZM43.91,3.98c3.73.63,4.8,3,4.27,6.41-1.18-.75-10.05-7.14-4.27-6.41.64.11-.5-.06,0,0Z"/>
</svg>